<?xml version="1.0" encoding="UTF-8" standalone="no"?>
<!-- Created with Inkscape (http://www.inkscape.org/) -->

<svg
   xmlns:dc="http://purl.org/dc/elements/1.1/"
   xmlns:cc="http://creativecommons.org/ns#"
   xmlns:rdf="http://www.w3.org/1999/02/22-rdf-syntax-ns#"
   xmlns:svg="http://www.w3.org/2000/svg"
   xmlns="http://www.w3.org/2000/svg"
   xmlns:xlink="http://www.w3.org/1999/xlink"
   xmlns:sodipodi="http://sodipodi.sourceforge.net/DTD/sodipodi-0.dtd"
   xmlns:inkscape="http://www.inkscape.org/namespaces/inkscape"
   width="38.000000pt"
   height="38.000000pt"
   viewBox="0 0 172.000000 172.000000"
   id="svg2"
   version="1.1"
   inkscape:version="0.92.3 (2405546, 2018-03-11)"
   sodipodi:docname="logo.svg"
   inkscape:export-filename="D:\Users\Michael\Documents\isopoh.png"
   inkscape:export-xdpi="9.6000004"
   inkscape:export-ydpi="9.6000004">
  <defs
     id="defs4">
    <linearGradient
       inkscape:collect="always"
       id="linearGradient4197">
      <stop
         style="stop-color:#414141;stop-opacity:1"
         offset="0"
         id="stop4199" />
      <stop
         style="stop-color:#000000;stop-opacity:1"
         offset="1"
         id="stop4201" />
    </linearGradient>
    <linearGradient
       inkscape:collect="always"
       id="linearGradient4188">
      <stop
         style="stop-color:#00e500;stop-opacity:1"
         offset="0"
         id="stop4190" />
      <stop
         style="stop-color:#008000;stop-opacity:1"
         offset="1"
         id="stop4192" />
    </linearGradient>
    <radialGradient
       inkscape:collect="always"
       xlink:href="#linearGradient4188"
       id="radialGradient4194"
       cx="267.41882"
       cy="366.45288"
       fx="267.41882"
       fy="366.45288"
       r="223.88467"
       gradientTransform="matrix(1.4473677,0.26879795,-0.13804033,0.72476385,-60.919638,45.172341)"
       gradientUnits="userSpaceOnUse" />
    <radialGradient
       inkscape:collect="always"
       xlink:href="#linearGradient4197"
       id="radialGradient4203"
       cx="297.37924"
       cy="431.16995"
       fx="297.37924"
       fy="431.16995"
       r="242.22098"
       gradientTransform="matrix(1,0,0,0.28871175,0,329.18557)"
       gradientUnits="userSpaceOnUse" />
    <filter
       style="color-interpolation-filters:sRGB"
       inkscape:label="Feather"
       id="filter4265">
      <feGaussianBlur
         stdDeviation="3.91586"
         result="blur"
         id="feGaussianBlur4267" />
      <feComposite
         in="SourceGraphic"
         in2="blur"
         operator="atop"
         result="composite1"
         id="feComposite4269" />
      <feComposite
         in2="composite1"
         operator="in"
         result="composite2"
         id="feComposite4271" />
      <feComposite
         in2="composite2"
         operator="in"
         result="fbSourceGraphic"
         id="feComposite4273" />
      <feColorMatrix
         result="fbSourceGraphicAlpha"
         in="fbSourceGraphic"
         values="0 0 0 -1 0 0 0 0 -1 0 0 0 0 -1 0 0 0 0 1 0"
         id="feColorMatrix4275" />
      <feGaussianBlur
         id="feGaussianBlur4277"
         stdDeviation="3.92"
         result="blur"
         in="fbSourceGraphic" />
      <feComposite
         id="feComposite4279"
         in2="blur"
         in="fbSourceGraphic"
         operator="atop"
         result="composite1" />
      <feComposite
         id="feComposite4281"
         in2="composite1"
         operator="in"
         result="composite2" />
      <feComposite
         id="feComposite4283"
         in2="composite2"
         operator="in"
         result="composite3" />
    </filter>
    <radialGradient
       inkscape:collect="always"
       xlink:href="#linearGradient4197"
       id="radialGradient4285"
       gradientUnits="userSpaceOnUse"
       gradientTransform="matrix(1,0,0,0.28871175,0,329.18557)"
       cx="297.37924"
       cy="431.16995"
       fx="297.37924"
       fy="431.16995"
       r="242.22098" />
    <radialGradient
       inkscape:collect="always"
       xlink:href="#linearGradient4197"
       id="radialGradient4287"
       gradientUnits="userSpaceOnUse"
       gradientTransform="matrix(1,0,0,0.28871175,0,329.18557)"
       cx="297.37924"
       cy="431.16995"
       fx="297.37924"
       fy="431.16995"
       r="242.22098" />
    <radialGradient
       inkscape:collect="always"
       xlink:href="#linearGradient4197"
       id="radialGradient4289"
       gradientUnits="userSpaceOnUse"
       gradientTransform="matrix(1,0,0,0.28871175,0,329.18557)"
       cx="297.37924"
       cy="431.16995"
       fx="297.37924"
       fy="431.16995"
       r="242.22098" />
    <radialGradient
       inkscape:collect="always"
       xlink:href="#linearGradient4197"
       id="radialGradient4291"
       gradientUnits="userSpaceOnUse"
       gradientTransform="matrix(1,0,0,0.28871175,0,329.18557)"
       cx="297.37924"
       cy="431.16995"
       fx="297.37924"
       fy="431.16995"
       r="242.22098" />
    <radialGradient
       inkscape:collect="always"
       xlink:href="#linearGradient4197"
       id="radialGradient4293"
       gradientUnits="userSpaceOnUse"
       gradientTransform="matrix(1,0,0,0.28871175,0,329.18557)"
       cx="297.37924"
       cy="431.16995"
       fx="297.37924"
       fy="431.16995"
       r="242.22098" />
    <radialGradient
       inkscape:collect="always"
       xlink:href="#linearGradient4197"
       id="radialGradient4295"
       gradientUnits="userSpaceOnUse"
       gradientTransform="matrix(1,0,0,0.28871175,0,329.18557)"
       cx="297.37924"
       cy="431.16995"
       fx="297.37924"
       fy="431.16995"
       r="242.22098" />
  </defs>
  <sodipodi:namedview
     id="base"
     pagecolor="#ffffff"
     bordercolor="#666666"
     borderopacity="1.0"
     inkscape:pageopacity="0.0"
     inkscape:pageshadow="2"
     inkscape:zoom="11.730892"
     inkscape:cx="43.813122"
     inkscape:cy="12.988551"
     inkscape:document-units="px"
     inkscape:current-layer="layer2"
     showgrid="false"
     inkscape:window-width="1920"
     inkscape:window-height="1147"
     inkscape:window-x="-8"
     inkscape:window-y="-8"
     inkscape:window-maximized="1"
     fit-margin-top="1"
     fit-margin-left="1"
     fit-margin-right="1"
     fit-margin-bottom="1"
     units="px" />
  <metadata
     id="metadata7">
    <rdf:RDF>
      <cc:Work
         rdf:about="">
        <dc:format>image/svg+xml</dc:format>
        <dc:type
           rdf:resource="http://purl.org/dc/dcmitype/StillImage" />
        <dc:title></dc:title>
      </cc:Work>
    </rdf:RDF>
  </metadata>
  <g
     inkscape:label="Layer 1"
     inkscape:groupmode="layer"
     id="layer1"
     transform="translate(-46.547843,50.45247)" />
  <g
     inkscape:groupmode="layer"
     id="layer2"
     inkscape:label="Layer 2"
     transform="translate(-46.547843,50.45247)">
    <g
       id="g3766"
       transform="matrix(0.28519459,0,0,0.30037894,34.407641,-39.23055)">
      <path
         inkscape:connector-curvature="0"
         id="path3345"
         d="m 98.771885,104.47267 c 231.428575,-94.28572 437.142855,4.28571 437.142855,4.28571 l 12.85714,232.85715 -197.14285,70 -252.857145,-95.71429 z"
         style="fill:none;fill-rule:evenodd;stroke:#000000;stroke-width:1px;stroke-linecap:butt;stroke-linejoin:miter;stroke-opacity:1" />
      <path
         inkscape:connector-curvature="0"
         id="path3360"
         d="m 291.30173,387.52333 c -58.09997,-22.01804 -60.32276,-22.99724 -61.19245,-26.9569 -1.12422,-5.11854 -6.83587,-12.03826 -12.2457,-14.8358 -7.49579,-3.87621 -8.64203,-7.24004 -5.9239,-17.38471 1.30566,-4.87299 1.99792,-9.23598 1.53837,-9.69553 -0.45955,-0.45955 -8.46483,-2.72827 -17.78951,-5.0416 -15.90932,-3.9469 -17.06667,-4.05416 -18.78303,-1.7407 -2.26728,3.05604 -5.85053,14.78091 -6.98999,22.87215 -0.47026,3.33929 -1.24978,6.04598 -1.73227,6.01486 -0.48249,-0.0311 -5.28852,-1.79897 -10.68007,-3.92857 l -9.80282,-3.872 -5.631,-13.57143 c -3.09705,-7.46428 -6.13401,-14.0768 -6.7488,-14.69447 -0.61479,-0.61769 -7.30618,1.86877 -14.86975,5.52546 -10.06698,4.86695 -14.72331,6.4047 -17.37695,5.73868 l -3.625001,-0.90981 V 210.25893 105.47491 l 13.214281,-5.04111 c 41.12886,-15.69021 88.22165,-26.90054 137.5,-32.73154 20.71312,-2.45094 97.5227,-2.477 118.57143,-0.0402 56.47137,6.53758 115.24492,20.66273 155.14275,37.28572 l 10.85702,4.52346 0.92869,15.17818 c 0.51077,8.348 0.92869,18.48055 0.92869,22.51679 v 7.33862 l -6.1261,1.63848 c -7.27915,1.94688 -12.7483,5.99642 -18.12753,13.42224 l -3.9461,5.44743 -6.41525,-15.31492 c -3.52837,-8.42321 -7.22571,-17.40421 -8.2163,-19.95779 -0.99058,-2.55357 -2.45445,-4.64285 -3.25304,-4.64285 -0.79858,0 -8.03248,4.33928 -16.07534,9.64285 -8.04286,5.30358 -15.82934,10.3636 -17.30329,11.2445 -2.59198,1.54909 -2.5735,1.78346 0.56325,7.14286 4.13361,7.06262 26.77045,53.40492 36.46302,74.64734 4.07779,8.93696 8.26102,16.57398 9.29605,16.97115 1.03504,0.39718 6.82583,-1.5661 12.8684,-4.36287 6.04258,-2.79676 13.39723,-6.06169 16.34365,-7.25539 2.94643,-1.1937 5.35715,-2.81431 5.35715,-3.60137 0,-0.78704 -3.88795,-9.9188 -8.63989,-20.2928 -4.75193,-10.374 -8.30783,-19.72713 -7.90197,-20.78475 1.82513,-4.75623 5.1754,-0.88734 12.25189,14.14848 l 7.5639,16.07143 3.14067,55.71428 c 1.72737,30.64286 2.966,55.93546 2.7525,56.20577 -0.3091,0.39139 -76.5091,27.58879 -184.1671,65.73319 l -11.42857,4.04926 -60.28999,-22.84799 z m -11.23664,-26.29657 c 10.78067,-3.43612 22.70894,-15.76149 25.86407,-26.7251 3.13513,-10.8941 2.06506,-20.20926 -3.65666,-31.83169 -9.87287,-20.05467 -30.81061,-28.27591 -51.90876,-20.38208 -20.5151,7.67567 -31.28706,27.90178 -25.97904,48.77985 4.19586,16.5036 14.6374,27.73918 29.57012,31.81885 8.29297,2.26565 15.16474,1.82881 26.11027,-1.65983 z m 78.64243,-11.00832 c 7.25555,-3.39052 13.61157,-6.84364 14.1245,-7.67357 0.51292,-0.82994 -1.32416,-6.46111 -4.08242,-12.51373 -2.75827,-6.0526 -5.01503,-11.24591 -5.01503,-11.54067 0,-0.29477 2.68989,-0.53594 5.97755,-0.53594 13.15611,0 26.4232,-10.93334 30.56801,-25.19097 5.63409,-19.3806 -3.80389,-41.19142 -21.58983,-49.89326 -6.74641,-3.30071 -9.1581,-3.73156 -18.30301,-3.26976 -8.8472,0.44676 -11.71743,1.26832 -17.93552,5.13369 -6.3385,3.94023 -7.8111,4.34846 -10.24305,2.83963 -2.36769,-1.46896 -3.72505,-1.26039 -8.15723,1.25341 -12.87629,7.30307 -29.63879,17.93802 -30.03143,19.0534 -0.23584,0.66996 2.69016,6.65762 6.50223,13.3059 3.81205,6.6483 13.26454,25.83727 21.00551,42.64217 7.74097,16.8049 14.73156,31.39926 15.53463,32.43192 1.92934,2.48088 5.59726,1.45698 21.64509,-6.04222 z m 95.44395,-69.4182 c 10.32073,-3.86147 18.60269,-11.27134 23.27755,-20.82638 9.96437,-20.36646 0.56315,-46.9611 -20.19009,-57.11472 -6.77907,-3.31669 -9.09304,-3.71596 -18.83087,-3.2492 -17.66637,0.84679 -31.43666,9.51703 -38.05239,23.95906 -4.16435,9.09074 -4.14865,25.42787 0.0331,34.56039 9.84101,21.49118 31.97235,30.82363 53.7626,22.67085 h 5e-5 z"
         style="fill:#008000;fill-opacity:0" />
      <path
         inkscape:connector-curvature="0"
         id="path3376"
         d="M 212.55408,590.64145 C 129.91925,559.727 58.888163,533.15348 54.707236,531.58919 l -7.601691,-2.84415 V 399.30875 269.87247 l 16.544856,-6.23252 C 115.1455,244.2415 174.10769,230.38172 235.8063,223.17262 c 25.93372,-3.0302 122.10261,-3.06241 148.45655,-0.0497 70.86182,8.10067 144.28026,25.54175 194.51383,46.2082 l 13.86188,5.70289 0.091,7.34154 c 0.0501,4.03785 3.55659,68.14298 7.79227,142.45586 4.23565,74.3129 7.47268,135.38779 7.19338,135.72198 -0.27931,0.33421 -49.06059,17.62996 -108.40286,38.43498 -59.34227,20.80503 -114.33411,40.08497 -122.20409,42.84428 L 362.7992,646.84962 212.55403,590.6415 Z"
         style="fill:url(#radialGradient4194);fill-opacity:1;stroke:none;filter:url(#filter4265)"
         transform="matrix(1.0360612,-0.09521585,0.09646605,0.98203602,-34.531354,-145.3487)" />
      <g
         transform="matrix(1.0176424,-0.44209115,0.46983171,0.95755715,-208.8944,-84.357586)"
         id="flowRoot3337"
         style="font-style:normal;font-variant:normal;font-weight:bold;font-stretch:normal;font-size:161.37559509px;line-height:125%;font-family:'Berlin Sans FB';-inkscape-font-specification:'Berlin Sans FB, Bold';text-align:start;letter-spacing:0px;word-spacing:0px;writing-mode:lr-tb;text-anchor:start;fill:url(#radialGradient4203);fill-opacity:1;stroke:none;stroke-width:1px;stroke-linecap:butt;stroke-linejoin:miter;stroke-opacity:1">
        <path
           style="fill:url(#radialGradient4285);fill-opacity:1"
           inkscape:connector-curvature="0"
           id="path3348"
           d="m 129.46851,505.62791 q 0,2.3639 -2.2851,2.3639 -3.38826,0 -10.24357,-0.31519 -6.77651,-0.39398 -10.24357,-0.39398 -3.23066,0 -9.770786,0.31519 -6.461327,0.31518 -9.691991,0.31518 -2.60029,0 -2.60029,-2.2851 0,-9.6132 0.787966,-28.99718 0.787967,-19.38398 0.787967,-29.07597 0,-8.11606 -0.787967,-24.26938 -0.70917,-16.23211 -0.70917,-24.19058 0,-1.73353 1.89112,-1.73353 3.467054,0 10.401162,0.31519 7.012909,0.31519 10.558759,0.31519 3.30946,0 9.92838,-0.31519 6.61892,-0.31519 9.84958,-0.31519 2.04872,0 2.04872,1.89112 0,8.03727 -0.78797,24.19058 -0.70917,16.07453 -0.70917,24.11179 0,9.69199 0.78797,29.07597 0.78796,19.38398 0.78796,28.99718 z" />
        <path
           style="fill:url(#radialGradient4287);fill-opacity:1"
           inkscape:connector-curvature="0"
           id="path3350"
           d="m 194.94855,444.48169 q 0,0.55157 -6.14614,6.85531 -6.14614,6.22494 -6.14614,9.92838 0,3.46705 4.7278,9.77079 4.8066,6.22494 4.8066,13.63182 0,5.12179 -2.20631,9.6132 -1.26075,2.52149 -5.43697,8.27365 -2.75788,3.93983 -7.40689,9.21921 -6.30373,7.24929 -8.19485,7.24929 -1.10316,0 -2.91548,-1.26074 -16.78369,-11.9771 -26.0029,-16.6261 -1.73353,-0.86677 -1.73353,-1.65473 0,-0.39399 6.85531,-8.58884 6.93411,-8.19485 6.93411,-13.31664 0,-3.62465 -5.27938,-8.74643 -5.20058,-5.12178 -5.20058,-11.58311 0,-7.32809 8.51004,-18.75361 6.38253,-8.66763 14.41979,-15.91693 1.26075,-1.18195 2.12751,-1.18195 1.02436,0 2.28511,1.33954 5.27937,5.43698 24.34817,19.69917 1.65473,1.18195 1.65473,2.04872 z" />
        <path
           style="fill:url(#radialGradient4289);fill-opacity:1"
           inkscape:connector-curvature="0"
           id="path3352"
           d="m 281.86128,468.19949 q 0,18.12323 -11.6619,29.94273 -11.66191,11.74071 -29.78515,11.74071 -17.65045,0 -29.54875,-11.50432 -11.8983,-11.50431 -11.8983,-29.07597 0,-18.43842 11.42552,-30.49431 11.7407,-12.21349 30.02153,-12.21349 18.12324,0 29.78515,11.74071 11.6619,11.7407 11.6619,29.86394 z m -34.19775,0 q 0,-3.07307 -2.12751,-5.20058 -2.04872,-2.20631 -5.12179,-2.20631 -3.07307,0 -5.20058,2.12751 -2.04871,2.12751 -2.04871,5.27938 0,3.07307 2.04871,5.27937 2.12751,2.12751 5.20058,2.12751 3.15187,0 5.20058,-2.12751 2.04872,-2.12751 2.04872,-5.27937 z" />
        <path
           style="fill:url(#radialGradient4291);fill-opacity:1"
           inkscape:connector-curvature="0"
           id="path3354"
           d="m 385.00614,470.48459 q 0,16.78369 -10.32237,28.20921 -10.71634,11.8195 -27.26365,11.8195 -6.46132,0 -16.23211,-5.20058 -0.70917,0 -0.70917,2.28511 0,3.54585 -0.1576,10.55875 -0.15759,7.0129 -0.15759,10.55876 0,4.01863 -3.38826,4.01863 -23.95419,0 -31.83385,-0.63038 -3.38826,-0.23639 -3.38826,-3.38825 v -60.98863 q 0,-16.23212 -2.60029,-33.09461 -0.15759,-1.02435 -0.15759,-1.49713 0,-1.49714 1.33954,-2.04872 8.35245,-0.70917 19.62037,-1.73352 0.0788,-0.0788 9.84959,-1.65473 6.85531,-1.10316 9.3768,-1.10316 2.3639,0 2.99427,3.15187 0.70917,3.07307 1.65473,3.07307 1.49714,0 6.22494,-1.02436 4.7278,-1.02435 7.2493,-1.02435 16.5473,0 27.34244,11.58311 10.55876,11.34672 10.55876,28.13041 z m -39.87112,-0.63037 q 0,-3.15187 -2.12751,-5.43697 -2.04871,-2.3639 -5.12179,-2.3639 -3.15186,0 -5.20058,2.3639 -2.04871,2.2851 -2.04871,5.43697 0,2.99427 2.12751,5.35817 2.12751,2.3639 5.12178,2.3639 3.07308,0 5.12179,-2.2851 2.12751,-2.28511 2.12751,-5.43697 z" />
        <path
           style="fill:url(#radialGradient4293);fill-opacity:1"
           inkscape:connector-curvature="0"
           id="path3356"
           d="m 473.49482,468.19949 q 0,18.12323 -11.66191,29.94273 -11.6619,11.74071 -29.78514,11.74071 -17.65046,0 -29.54875,-11.50432 -11.8983,-11.50431 -11.8983,-29.07597 0,-18.43842 11.42552,-30.49431 11.7407,-12.21349 30.02153,-12.21349 18.12324,0 29.78514,11.74071 11.66191,11.7407 11.66191,29.86394 z m -34.19776,0 q 0,-3.07307 -2.12751,-5.20058 -2.04871,-2.20631 -5.12178,-2.20631 -3.07307,0 -5.20058,2.12751 -2.04871,2.12751 -2.04871,5.27938 0,3.07307 2.04871,5.27937 2.12751,2.12751 5.20058,2.12751 3.15187,0 5.20058,-2.12751 2.04871,-2.12751 2.04871,-5.27937 z" />
        <path
           style="fill:url(#radialGradient4295);fill-opacity:1"
           inkscape:connector-curvature="0"
           id="path3358"
           d="m 569.07517,448.65791 q 0,9.4556 -0.15759,28.28801 -0.1576,18.8324 -0.1576,28.20921 0,3.23066 -2.91547,3.23066 -2.67909,0 -7.95847,-0.31518 -5.27937,-0.31519 -7.87966,-0.31519 -2.75789,0 -8.27366,0.0788 -5.43697,0.0788 -8.19485,0.0788 -3.07307,0 -3.07307,-4.01863 0,-3.62465 0.15759,-10.71635 0.1576,-7.17049 0.1576,-10.79514 0,-2.67909 -0.1576,-8.03726 -0.15759,-5.35818 -0.15759,-8.03726 0,-4.57021 -3.86104,-4.57021 -4.01863,0 -4.01863,4.88539 v 37.74361 q 0,4.01863 -3.38826,4.01863 -2.60029,0 -7.72207,-0.31518 -5.04299,-0.31519 -7.64328,-0.31519 -2.67908,0 -8.03726,0.0788 -5.35817,0.0788 -8.11606,0.0788 -3.38825,0 -3.38825,-3.38825 v -36.79805 q 0,-19.62038 -0.86677,-43.73216 -0.0788,-5.43697 -0.23639,-10.87394 -0.23639,-6.54012 -1.26074,-10.71635 -0.23639,-1.02436 -0.23639,-1.57593 0,-1.41834 1.33954,-1.96992 8.19485,-0.78797 19.85676,-2.2851 18.59602,-3.70345 19.46278,-3.70345 1.49714,0 1.49714,2.20631 0,2.52149 -0.39398,6.69772 -0.47278,4.96419 -0.55158,6.69772 -0.63037,14.73497 -0.63037,27.81522 0,1.89112 0.63037,1.89112 -0.78797,0 7.1705,-4.5702 8.03726,-4.57021 14.73497,-4.57021 9.45561,0 16.46851,4.96419 7.80087,5.59456 7.80087,14.65618 z" />
      </g>
    </g>
  </g>
</svg>
